<svg height="512" viewBox="0 0 56 60" width="512" xmlns="http://www.w3.org/2000/svg"><g id="Page-1" fill="none" fill-rule="evenodd"><g id="021---Bidder" fill="#000" fill-rule="nonzero" transform="translate(0 -1)"><path id="Shape" d="M54 2H38a2 2 0 00-2 2v12a2 2 0 002 2h5v7.028a4.933 4.933 0 00-1.888 2.922l-1.761 8.2-8.061-3.219A12.987 12.987 0 0026.46 32h-2.079a6.14 6.14 0 01-1.142-2.956A10 10 0 0029 20V7a5.785 5.785 0 00-6-6 1 1 0 00-1 1 1.882 1.882 0 01-2 2h-2a9.011 9.011 0 00-9 9v7a10 10 0 005.761 9.044A6.145 6.145 0 0113.625 32h-.8a8.924 8.924 0 00-3.542.73L6.054 34.1A10.016 10.016 0 000 43.3V52a9.011 9.011 0 009 9h21a2 2 0 002-2V43.985l6.938 2.773a7 7 0 009.45-5.029l2.5-11.681A4.939 4.939 0 0049 25.016V18h5a2 2 0 002-2V4a2 2 0 00-2-2zM11 20v-7a7.008 7.008 0 017-7h2a3.926 3.926 0 003.874-2.9A3.677 3.677 0 0127 7v3.365A5.837 5.837 0 0023 9a1 1 0 000 2 3.85 3.85 0 014 4v5a8 8 0 11-16 0zm8 10a9.977 9.977 0 002.327-.284 8.207 8.207 0 001.328 3.337A5.759 5.759 0 0119 34a5.8 5.8 0 01-3.657-.943 8.207 8.207 0 001.33-3.341A9.977 9.977 0 0019 30zm29.932-.37l-2.5 11.681a5 5 0 01-6.751 3.59l-11.36-4.54a1 1 0 10-.742 1.858l2.421.967V59h-5.026A4.948 4.948 0 0026 56a5.006 5.006 0 00-5-5H10v-7.7a1 1 0 00-2 0V52a1 1 0 001 1h12a3 3 0 010 6H9a7.008 7.008 0 01-7-7v-8.7c0-3.2 1.904-6.093 4.842-7.36l3.223-1.371A6.928 6.928 0 0112.82 34h.644c.628.782 2.146 2 5.536 2s4.908-1.218 5.536-2h1.924c1.4 0 2.789.268 4.089.789l9.16 3.66a1 1 0 001.349-.719l2.01-9.361a2.962 2.962 0 011.3-1.886 3 3 0 014.561 3.147zM47 24.106a4.988 4.988 0 00-2 0V18h2zM54 16H38V4h16z"/></g></g></svg>