<svg version="1.1" id="Capa_1" xmlns="http://www.w3.org/2000/svg" x="0" y="0" viewBox="0 0 383.9 383.9" xml:space="preserve"><path d="M344.1 50H320V30.9c0-5.5-4.5-10-10-10s-10 4.5-10 10V50h-98V30.9c0-5.5-4.5-10-10-10s-10 4.5-10 10V50H83V30.9c0-5.5-4.5-10-10-10s-10 4.5-10 10V50H39.9C17.9 50 0 68.5 0 90.5V323c0 22.1 17.8 40 39.9 40H344c22.1 0 39.9-17.9 39.9-39.9V90.5c.1-22-17.8-40.5-39.8-40.5zM364 323c0 11-8.8 19.9-19.8 20H39.9c-11 0-19.9-8.9-19.9-19.9V90.5C20 79.4 28.9 70 39.9 70H63v14.5c0 5.5 4.5 10 10 10s10-4.5 10-10V70h99v14.5c0 5.5 4.5 10 10 10s10-4.5 10-10V70h98v14.5c0 5.5 4.5 10 10 10s10-4.5 10-10V70h24.1c11.1 0 19.9 9.5 19.9 20.5V323z"/><path d="M165.7 135h-17.5c-5.5 0-10 4.5-10 10s4.5 10 10 10h17.5c5.5 0 10-4.5 10-10s-4.5-10-10-10zm69.6 0h-17.5c-5.5 0-10 4.5-10 10s4.5 10 10 10h17.5c5.5 0 10-4.5 10-10s-4.4-10-10-10zm70.2 0H288c-5.5 0-10 4.5-10 10s4.5 10 10 10h17.5c5.5 0 10-4.5 10-10s-4.5-10-10-10zm-139.8 69h-17.5c-5.5 0-10 4.5-10 10s4.5 10 10 10h17.5c5.5 0 10-4.5 10-10s-4.5-10-10-10zm-70.1 0H78c-5.5 0-10 4.5-10 10s4.5 10 10 10h17.5c5.5 0 10-4.5 10-10s-4.4-10-9.9-10zm139.7 0h-17.5c-5.5 0-10 4.5-10 10s4.5 10 10 10h17.5c5.5 0 10-4.5 10-10s-4.4-10-10-10zm70.2 0H288c-5.5 0-10 4.5-10 10s4.5 10 10 10h17.5c5.5 0 10-4.5 10-10s-4.5-10-10-10zm-139.8 68h-17.5c-5.5 0-10 4.5-10 10s4.5 10 10 10h17.5c5.5 0 10-4.5 10-10s-4.5-10-10-10zm-70.1 0H78c-5.5 0-10 4.5-10 10s4.5 10 10 10h17.5c5.5 0 10-4.5 10-10s-4.4-10-9.9-10zm139.7 0h-17.5c-5.5 0-10 4.5-10 10s4.5 10 10 10h17.5c5.5 0 10-4.5 10-10s-4.4-10-10-10z"/></svg>