<svg id="Layer_1" height="512" width="512" xmlns="http://www.w3.org/2000/svg"><path d="M374 127h36c10.752 0 19.5-8.748 19.5-19.5v-88C429.5 8.748 420.752 0 410 0h-36c-10.752 0-19.5 8.748-19.5 19.5V41h-10.402c-4.143 0-7.5 3.358-7.5 7.5s3.357 7.5 7.5 7.5H354.5v15h-58.708c.458-2.432.708-4.937.708-7.5s-.25-5.068-.708-7.5h16.63c4.143 0 7.5-3.358 7.5-7.5s-3.357-7.5-7.5-7.5h-22.767C282.382 30.154 270.012 23 256 23s-26.382 7.154-33.656 18H157.5V19.5C157.5 8.748 148.752 0 138 0h-36C91.248 0 82.5 8.748 82.5 19.5v12.185c0 4.142 3.357 7.5 7.5 7.5s7.5-3.358 7.5-7.5V19.5c0-2.481 2.019-4.5 4.5-4.5h36c2.481 0 4.5 2.019 4.5 4.5v88c0 2.481-2.019 4.5-4.5 4.5h-36a4.505 4.505 0 01-4.5-4.5v-44c0-4.142-3.357-7.5-7.5-7.5s-7.5 3.358-7.5 7.5v44c0 10.752 8.748 19.5 19.5 19.5h36c10.752 0 19.5-8.748 19.5-19.5V86h64.844A40.818 40.818 0 00233.5 97.156v317.688A40.818 40.818 0 00222.344 426H157.5v-21.5c0-10.752-8.748-19.5-19.5-19.5h-36c-10.752 0-19.5 8.748-19.5 19.5v88c0 10.752 8.748 19.5 19.5 19.5h36c10.752 0 19.5-8.748 19.5-19.5V471h64.844c7.274 10.846 19.644 18 33.656 18s26.382-7.154 33.656-18H354.5v21.5c0 10.752 8.748 19.5 19.5 19.5h36c10.752 0 19.5-8.748 19.5-19.5v-88c0-10.752-8.748-19.5-19.5-19.5h-36c-10.752 0-19.5 8.748-19.5 19.5V426h-64.844a40.818 40.818 0 00-11.156-11.156v-30.23c0-4.142-3.357-7.5-7.5-7.5s-7.5 3.358-7.5 7.5v24.094c-2.432-.458-4.937-.708-7.5-.708s-5.068.25-7.5.708V103.292c2.432.458 4.937.708 7.5.708s5.068-.25 7.5-.708v247.833c0 4.142 3.357 7.5 7.5 7.5s7.5-3.358 7.5-7.5V97.156A40.818 40.818 0 00289.656 86H354.5v21.5c0 10.752 8.748 19.5 19.5 19.5zM142.5 492.5c0 2.481-2.019 4.5-4.5 4.5h-36a4.505 4.505 0 01-4.5-4.5v-88c0-2.481 2.019-4.5 4.5-4.5h36c2.481 0 4.5 2.019 4.5 4.5zm15-36.5v-15h58.708c-.458 2.432-.708 4.937-.708 7.5s.25 5.068.708 7.5zm212-51.5c0-2.481 2.019-4.5 4.5-4.5h36c2.481 0 4.5 2.019 4.5 4.5v88c0 2.481-2.019 4.5-4.5 4.5h-36a4.505 4.505 0 01-4.5-4.5zm-15 36.5v15h-58.708c.458-2.432.708-4.937.708-7.5s-.25-5.068-.708-7.5zm-73 7.5c0 14.061-11.439 25.5-25.5 25.5s-25.5-11.439-25.5-25.5S241.939 423 256 423s25.5 11.439 25.5 25.5zM157.5 71V56h58.708c-.458 2.432-.708 4.937-.708 7.5s.25 5.068.708 7.5zm73-7.5c0-14.061 11.439-25.5 25.5-25.5s25.5 11.439 25.5 25.5S270.061 89 256 89s-25.5-11.439-25.5-25.5zm139-44c0-2.481 2.019-4.5 4.5-4.5h36c2.481 0 4.5 2.019 4.5 4.5v88c0 2.481-2.019 4.5-4.5 4.5h-36a4.505 4.505 0 01-4.5-4.5z"/></svg>