<svg xmlns="http://www.w3.org/2000/svg" width="512" height="512"><g id="Out_line" data-name="Out line"><path d="M488 64H384v16h96v399.948H256v16h232a8 8 0 008-8V72a8 8 0 00-8-8z"/><circle cx="344" cy="48" r="8"/><path d="M232 96a8 8 0 00-8 8v184h16V112h24.022A39.79 39.79 0 00256 136a8 8 0 008 8h160a8 8 0 008-8 39.79 39.79 0 00-8.022-24H448v335.95H256v16h200a8 8 0 008-8V104a8 8 0 00-8-8h-79.563a12.285 12.285 0 01-8.746-3.623 12.418 12.418 0 01-2.49-13.921l7.849-17.048a31.981 31.981 0 10-58.1 0l7.849 17.048a12.418 12.418 0 01-2.49 13.921A12.285 12.285 0 01311.562 96H232zm79.56 16h.003a28.187 28.187 0 0020.06-8.309 28.482 28.482 0 005.709-31.926l-7.849-17.048a15.957 15.957 0 01.017-13.404 15.982 15.982 0 0129 0 15.96 15.96 0 01.017 13.404l-7.849 17.048a28.482 28.482 0 005.709 31.926 28.187 28.187 0 0020.06 8.309H392a24.042 24.042 0 0122.629 16H273.37A24.042 24.042 0 01296 112z"/><path d="M264 240.052h48a8 8 0 008-8v-44.635l13.657-13.657-11.314-11.315-13.657 13.658H264a8 8 0 00-8 8v47.949a8 8 0 008 8zm8-47.95h20.686l-10.343 10.343 11.314 11.315L304 203.417v20.635h-32zm0 223.846v16h40a8 8 0 008-8V376a8 8 0 00-8-8h-24v16h16v31.948zm64-207.896h96v16h-96zm0 96h96v16h-96zm0 95.922h88v16h-88zm-42.343-90.265L304 299.366V320h-16v16h24a8 8 0 008-8v-44.634l13.657-13.657-11.314-11.314-13.657 13.657H264a8 8 0 00-8 8V288h8v.052h28.686l-10.343 10.343z"/><path d="M264 408a8 8 0 008-8v-88a8 8 0 00-8-8H99.314l26.343-26.343a8.032 8.032 0 001.498-2.079L192 145.888V288h16V113.889l15.155-30.31a7.952 7.952 0 00.838-3.579H304V64H201.889l-14.31-7.155a8 8 0 00-10.734 3.577l-12.423 24.845-7.77-3.885a26 26 0 00-35.525 13.014l-16.48 38.453 14.707 6.302 16.48-38.453a10 10 0 0113.662-5.006l7.77 3.886-76.421 152.844a8.016 8.016 0 00-.765 2.446L73.061 304H56a8 8 0 00-8 8v80H24a8 8 0 00-8 8v88a8 8 0 008 8h208a8 8 0 008-8v-80zM187.578 74.733l17.689 8.845-8.845 17.689-17.688-8.845zM95.736 258.416l75.842-151.683 17.689 8.845-75.842 151.683-22.112 22.112zM256 392h-64v-72h64zm-80-72v72h-32v-72zm-112 0h64v72H64zm-32 88h64v72H32zm80 72v-72h32v72zm112 0h-64v-72h64z"/></g></svg>