<svg id="Capa_1" height="512" width="512" xmlns="http://www.w3.org/2000/svg"><path d="M478.151 232.598c-.658-27.339-6.185-53.784-16.479-78.753 3.56-2.418 6.311-5.934 7.732-10.043a20.123 20.123 0 00-1.176-15.834c-15.797-30.245-37.484-56.268-64.456-77.344a7.482 7.482 0 00-9.213 11.791c25.28 19.753 45.604 44.139 60.408 72.482a5.032 5.032 0 01.296 4.015 5.063 5.063 0 01-2.732 2.993l-35.325 15.928c-2.429 1.093-5.312.127-6.565-2.202-30.465-56.619-89.305-91.792-153.558-91.792S133.99 99.012 103.525 155.631c-1.254 2.329-4.138 3.297-6.564 2.202l-35.327-15.929a5.061 5.061 0 01-2.731-2.991 5.037 5.037 0 01.296-4.017C97.84 60.918 173.664 14.962 257.083 14.962c38.979 0 77.494 10.326 111.381 29.862 3.579 2.059 8.154.834 10.218-2.745a7.482 7.482 0 00-2.745-10.218C339.781 11.017 298.681 0 257.083 0c-43.528 0-86.267 11.988-123.595 34.669-37.201 22.602-67.475 54.865-87.551 93.299a20.128 20.128 0 00-1.174 15.836c1.422 4.11 4.174 7.625 7.735 10.043-10.18 24.693-15.709 50.826-16.465 77.846-13.731 5.125-23.537 18.37-23.537 33.866v61.589c0 4.132 3.349 7.481 7.481 7.481s7.481-3.349 7.481-7.481v-61.589c0-11.675 9.498-21.173 21.173-21.173h19.497c11.675 0 21.173 9.499 21.173 21.173v108.52c0 11.675-9.498 21.173-21.173 21.173H48.63c-11.675 0-21.173-9.499-21.173-21.173v-14.076c0-4.132-3.349-7.481-7.481-7.481s-7.481 3.349-7.481 7.481v14.076c0 19.925 16.21 36.136 36.136 36.136h19.497c19.925 0 36.136-16.21 36.136-36.136v-108.52c0-15.415-9.705-28.598-23.323-33.781.72-20.51 4.946-40.418 12.579-59.337 8.913 2.558 18.684-1.36 23.183-9.721 27.852-51.763 81.643-83.919 140.382-83.919s112.53 32.155 140.382 83.919c3.584 6.661 10.516 10.516 17.693 10.516 1.833 0 3.682-.258 5.495-.778 7.536 18.684 11.745 38.335 12.539 58.578-14.727 4.566-25.455 18.315-25.455 34.523v108.52c0 13.838 7.823 25.878 19.274 31.947-10.303 23.16-32.01 39.642-57.196 43.141a32.986 32.986 0 00-10.138-10.917 7.481 7.481 0 10-8.375 12.399 17.997 17.997 0 017.94 14.928v13.463c0 9.924-8.073 17.998-17.998 17.998h-36.527c-9.924 0-17.998-8.073-17.998-17.998v-13.463c0-9.924 8.073-17.998 17.998-17.998h15.271c4.132 0 7.481-3.349 7.481-7.481s-3.349-7.481-7.481-7.481h-15.271c-18.174 0-32.96 14.786-32.96 32.96v13.463c0 18.174 14.786 32.96 32.96 32.96h36.527c12.692 0 23.724-7.216 29.229-17.757 24.232-2.195 46.845-11.632 65.573-27.444 18.231-15.391 31.178-35.407 37.64-58.093 14.912-4.451 25.818-18.286 25.818-34.627v-108.52c-.001-14.66-8.781-27.3-21.355-32.961zM79.782 166.5c-8.147 20.079-12.746 41.186-13.714 62.924H51.09c.975-23.968 5.985-47.158 14.939-69.124zm368.315 62.924c-.968-21.739-5.566-42.845-13.714-62.923l13.755-6.202c8.953 21.966 13.962 45.159 14.937 69.125zm-73.892 249.332v-13.179c0-.652-.022-1.302-.06-1.948 30.036-4.981 55.66-25.319 67.385-53.498.775.05 1.555.084 2.343.084h13.625c-12.709 36.237-45.245 63.084-83.293 68.541zm110.338-104.677c0 11.675-9.498 21.173-21.172 21.173h-19.498c-11.675 0-21.172-9.499-21.172-21.173v-108.52c0-11.675 9.498-21.173 21.172-21.173h19.498c11.675 0 21.172 9.499 21.172 21.173z"/><path d="M270.335 349.11c-.923 0-1.86-.171-2.77-.533a7.497 7.497 0 01-4.197-9.74l30.992-77.922c1.531-3.849 5.894-5.73 9.74-4.197a7.497 7.497 0 014.197 9.74l-30.992 77.922a7.502 7.502 0 01-6.97 4.73zm72.234 0a7.501 7.501 0 01-6.863-10.521l29.631-67.403H333.96c-4.143 0-7.5-3.357-7.5-7.5s3.357-7.5 7.5-7.5h42.867a7.5 7.5 0 016.866 10.518l-34.254 77.922a7.502 7.502 0 01-6.87 4.484zm-111.26-.002h-.066a7.5 7.5 0 01-7.435-7.564c.041-4.709.082-9.965.122-15.434h-31.417a7.5 7.5 0 01-6.566-11.124c4.381-7.94 26.461-47.831 30.937-53.321 3.737-4.583 8.773-6.45 13.479-4.994 4.759 1.474 8.141 6.103 8.615 11.792.234 2.807.168 23.627.055 42.646h2.414c4.142 0 7.5 3.357 7.5 7.5s-3.358 7.5-7.5 7.5h-2.514c-.052 7.021-.099 12.717-.124 15.563a7.503 7.503 0 01-7.5 7.436zm-26.057-37.998h18.777c.075-12.813.124-25.174.104-33.056-4.498 7.54-11.633 20.067-18.881 33.056z"/><path d="M153.867 349.887c-14.973 0-16.074-.367-17.081-.703-2.5-.833-4.367-2.722-5.124-5.182-1.305-4.241.518-6.627 5.389-13.005 3.962-5.188 11.339-14.847 23.698-32.506 3.671-5.244 6.039-9.941 7.041-13.969l.266-2.083c-.223-6.664-5.714-12.017-12.432-12.017-5.932 0-11.065 4.214-12.206 10.02-.799 4.064-4.741 6.707-8.805 5.914a7.5 7.5 0 01-5.914-8.805c2.519-12.822 13.842-22.129 26.924-22.129 15.129 0 27.438 12.309 27.438 27.438 0 .317-.02.635-.061.949l-.385 3.015a7.494 7.494 0 01-.133.745c-1.387 5.981-4.565 12.55-9.446 19.522-9.208 13.155-15.698 21.946-20.092 27.777 7.379.024 16.89-.066 25.825-.179 4.146-.032 7.542 3.264 7.594 7.404a7.5 7.5 0 01-7.405 7.594c-11.093.142-19.175.2-25.091.2z"/></svg>