<svg xmlns="http://www.w3.org/2000/svg" width="512" height="512" viewBox="0 0 60 60"><g id="Page-1" stroke="none" stroke-width="1" fill="none" fill-rule="evenodd"><g id="033---Insurance" fill="#000" fill-rule="nonzero"><path d="M45.4 6.65L30.4.084a1 1 0 00-.8 0l-15 6.566a1 1 0 00-.6.916v15.7c.005 3.528 1.7 6.84 4.56 8.908l10.367 7.477a1.83 1.83 0 002.146 0l10.367-7.476A11.014 11.014 0 0046 23.267V7.566a1 1 0 00-.6-.916zM44 23.267a9.009 9.009 0 01-3.73 7.286L30 37.96l-10.27-7.407A9.009 9.009 0 0116 23.267V8.22l14-6.128L44 8.22v15.047z" id="Shape"/><path d="M29.6 4.45l-11 4.816a1 1 0 00-.6.916v13.085a7 7 0 002.9 5.664l8.515 6.142a1 1 0 001.17 0l8.515-6.142a7 7 0 002.9-5.664V10.182a1 1 0 00-.6-.916l-11-4.816a1 1 0 00-.8 0zM40 10.835v12.432a5 5 0 01-2.07 4.042L30 33.029l-7.93-5.72A5 5 0 0120 23.267V10.835l10-4.377 10 4.377zM8.285 33.2l-2.163-5.054a3.188 3.188 0 10-5.833 2.575l3.919 8.621a10.621 10.621 0 002.171 3.134l6.163 6.164c-.347.368-.54.854-.542 1.36v8a2 2 0 002 2h11a2 2 0 002-2v-8a2 2 0 00-2-2v-1.861a10.478 10.478 0 00-2.192-6.55 7.2 7.2 0 00-3.333-2.431 19.782 19.782 0 01-5.725-3.674 4.6 4.6 0 00-5.465-.284zM25 58H14v-8h11v8zm-3.753-17.162A8.485 8.485 0 0123 46.139V48h-8.269l-6.938-6.938a8.649 8.649 0 01-1.765-2.547l-3.919-8.621a1.189 1.189 0 112.174-.96l2.237 5.217a11.8 11.8 0 002.522 3.725l4.568 4.569a1 1 0 101.414-1.414l-4.568-4.569a9.863 9.863 0 01-1.233-1.5 2.6 2.6 0 013.239.054 21.321 21.321 0 006.38 4.04 5.253 5.253 0 012.405 1.782z" id="Shape"/><path d="M22 53h-1a1 1 0 000 2h1a1 1 0 000-2zm33.792-13.658l3.919-8.621a3.188 3.188 0 10-5.832-2.575l-2.158 5.035a4.612 4.612 0 00-5.471.3 19.782 19.782 0 01-5.725 3.674 7.2 7.2 0 00-3.333 2.431A10.478 10.478 0 0035 46.139V48a2 2 0 00-2 2v8a2 2 0 002 2h11a2 2 0 002-2v-8a1.988 1.988 0 00-.542-1.36l6.163-6.164a10.621 10.621 0 002.171-3.134zM46 58H35v-8h11v8zm-.731-10H37v-1.861a8.485 8.485 0 011.753-5.3 5.256 5.256 0 012.4-1.783 21.312 21.312 0 006.381-4.04 2.6 2.6 0 013.245-.063 9.806 9.806 0 01-1.239 1.51l-4.568 4.569a1 1 0 001.414 1.414l4.568-4.569a11.8 11.8 0 002.522-3.725l2.237-5.218a1.187 1.187 0 012.091-.175c.22.34.25.768.083 1.136l-3.919 8.621a8.649 8.649 0 01-1.765 2.547L45.269 48z" id="Shape"/><path d="M39 53h-1a1 1 0 000 2h1a1 1 0 000-2zM24.6 21.2a1 1 0 00-1.2 1.6l4 3a1 1 0 001.432-.245l8-12a1 1 0 10-1.664-1.11l-7.414 11.121L24.6 21.2z" id="Shape"/></g></g></svg>