<svg xmlns="http://www.w3.org/2000/svg" id="Layer_1" data-name="Layer 1" width="512" height="512"><path d="M25.328 296.729l45.025 4.34a188.34 188.34 0 0022.948 54.5L64.619 390.2a7 7 0 00.442 9.415l47.627 47.628a7 7 0 009.416.441l34.683-28.723a192.764 192.764 0 0054.445 22.987l4.34 44.876A6.872 6.872 0 00222.54 493h67.522a6.871 6.871 0 006.968-6.178l4.34-44.949a188.256 188.256 0 0054.5-22.91l34.635 28.7a7 7 0 009.415-.433l47.628-47.623a7 7 0 00.441-9.412l-28.723-34.683a192.772 192.772 0 0022.988-54.451l44.431-4.334a7 7 0 006.32-6.967v-67.522a7 7 0 00-6.328-6.967l-45.025-4.34a188.34 188.34 0 00-22.952-54.495l28.681-34.636a7 7 0 00-.41-9.383l-47.025-47.626a7 7 0 00-9.446-.474l-34.685 28.724a192.764 192.764 0 00-54.445-22.987l-4.34-44.876A6.871 6.871 0 00290.062 19H222.54a6.872 6.872 0 00-6.968 6.178l-4.34 44.949a188.263 188.263 0 00-54.495 22.91l-34.637-28.7a7 7 0 00-9.416.432l-47.623 47.623a7 7 0 00-.442 9.412l28.723 34.683a192.723 192.723 0 00-22.987 54.445l-45.027 4.339A7 7 0 0019 222.238v67.523a7 7 0 006.328 6.968zM33 228.6l43.711-4.213a7 7 0 006.17-5.488 178.916 178.916 0 0124.964-59.179 7 7 0 00-.491-8.259L79.467 117.78l38.615-38.615 33.676 27.888a7 7 0 008.347.433A173.7 173.7 0 01219.2 82.58a6.831 6.831 0 005.489-6.02L228.9 33h54.808l4.213 43.56a6.915 6.915 0 005.488 6.095 178.808 178.808 0 0159.179 24.926 7 7 0 008.26-.509L394.489 79.2l38.071 38.554-27.914 33.705a7 7 0 00-.433 8.346 173.706 173.706 0 0124.906 59.095 7 7 0 006.17 5.488L479 228.6v54.815l-43.116 4.207a7 7 0 00-6.162 5.487 178.937 178.937 0 01-24.964 59.179 7 7 0 00.49 8.259l27.889 33.677-38.616 38.615-33.676-27.888a7 7 0 00-8.348-.433 173.661 173.661 0 01-59.091 24.906 6.831 6.831 0 00-5.488 6.02L283.705 479H228.9l-4.212-43.56a6.915 6.915 0 00-5.489-6.095 178.805 178.805 0 01-59.178-24.927 7 7 0 00-8.26.51l-33.676 27.9-38.618-38.613 27.887-33.674a7 7 0 00.433-8.346A173.706 173.706 0 0182.881 293.1a7 7 0 00-6.17-5.488L33 283.4z"/><path d="M256.3 394.464c76.349 0 138.464-62.114 138.464-138.464S332.651 117.536 256.3 117.536 117.837 179.65 117.837 256 179.952 394.464 256.3 394.464zm0-262.928A124.464 124.464 0 11131.837 256 124.6 124.6 0 01256.3 131.536z"/><path d="M193.594 263.737l-4.194 13.991a7.187 7.187 0 00-.4 1.954v45.908A20.625 20.625 0 00209.509 346h10.608A20.092 20.092 0 00240 325.59v-45.908a6.892 6.892 0 00-.089-1.954l-3.973-13.991A6.929 6.929 0 00234.626 250H222v-76.048a7 7 0 00-14 0V250h-13a6.934 6.934 0 00-1.406 13.737zM203 280.679L208.133 264h13.36L226 280.679v44.911c0 3.453-2.43 6.41-5.883 6.41h-10.608a6.613 6.613 0 01-6.509-6.41z"/><path d="M260 246.066V325.8a20 20 0 1040 0v-79.734c14-7.476 24.121-22.781 24.121-39.5a44.141 44.141 0 00-24.594-39.652 7.391 7.391 0 00-7.009.309 7.193 7.193 0 00-3.518 5.951v17.64l-9.266 6.284-9.75-6.881.1-17.041a6.976 6.976 0 00-10.09-6.3 44.308 44.308 0 000 79.186zm-3.922-58.509l-.021 6.274a7 7 0 002.987 5.759l16.749 11.718a7 7 0 007.893.091l16.363-11.009a6.849 6.849 0 002.951-5.827v-6.994c5 5.273 6.83 11.916 6.83 19a30.244 30.244 0 01-19.484 28.388A6.818 6.818 0 00286 241.51v84.29a6 6 0 11-12 0v-84.29a7.162 7.162 0 00-4.725-6.558 30.511 30.511 0 01-19.775-28.388 30.106 30.106 0 016.578-19.007z"/></svg>