<svg id="Capa_1" height="512" width="512" xmlns="http://www.w3.org/2000/svg"><path d="M512 256c0-7.053-3.209-13.561-8.805-17.854l-16.341-12.539 12.539-16.341c4.294-5.595 5.709-12.712 3.884-19.525-1.826-6.813-6.61-12.268-13.126-14.966l-19.029-7.882 7.882-19.029c2.699-6.516 2.225-13.757-1.302-19.865s-9.56-10.139-16.553-11.06l-20.419-2.688 2.688-20.421c.921-6.992-1.411-13.863-6.398-18.85s-11.859-7.319-18.851-6.399l-20.421 2.688-2.688-20.42c-.921-6.993-4.952-13.026-11.061-16.553-6.107-3.526-13.348-4-19.863-1.301l-19.029 7.882-7.882-19.029c-2.699-6.516-8.155-11.3-14.968-13.125-6.812-1.826-13.928-.41-19.523 3.884l-16.341 12.539-12.538-16.34C269.561 3.209 263.053 0 256 0s-13.561 3.209-17.854 8.805l-12.538 16.34-16.34-12.538c-5.595-4.294-12.711-5.71-19.524-3.884-6.813 1.825-12.268 6.609-14.968 13.125l-7.882 19.029-19.029-7.882c-6.517-2.7-13.758-2.225-19.865 1.302-6.108 3.526-10.139 9.56-11.06 16.552l-2.688 20.421-20.42-2.689c-6.992-.92-13.864 1.412-18.851 6.399s-7.319 11.858-6.398 18.851l2.688 20.42-20.42 2.688c-6.993.92-13.025 4.952-16.552 11.06-3.526 6.108-4.001 13.348-1.302 19.865l7.882 19.029-19.029 7.882c-6.516 2.699-11.3 8.154-13.125 14.966-1.826 6.813-.41 13.93 3.883 19.525l12.539 16.341-16.34 12.538C3.209 242.439 0 248.947 0 256s3.209 13.561 8.805 17.855l16.34 12.538-12.539 16.341c-4.293 5.595-5.709 12.712-3.883 19.525 1.825 6.813 6.609 12.268 13.125 14.966l19.029 7.882-7.882 19.029c-2.699 6.516-2.225 13.756 1.302 19.864s9.56 10.139 16.552 11.06l20.421 2.688-2.689 20.42c-.92 6.993 1.412 13.864 6.399 18.851s11.858 7.317 18.851 6.399l20.42-2.688 2.688 20.42c.921 6.993 4.952 13.026 11.061 16.553 6.108 3.526 13.349 4 19.864 1.302l19.029-7.882 7.882 19.028c2.699 6.516 8.154 11.3 14.966 13.125 6.812 1.826 13.929.41 19.525-3.883l16.341-12.539 12.538 16.34C242.439 508.791 248.947 512 256 512s13.561-3.209 17.854-8.805l12.539-16.34 16.34 12.539c5.595 4.293 12.71 5.709 19.525 3.883 6.813-1.825 12.268-6.609 14.966-13.125l7.882-19.029 19.029 7.882c6.517 2.699 13.757 2.225 19.863-1.301 6.108-3.526 10.14-9.56 11.061-16.553l2.688-20.42 20.421 2.688c6.991.917 13.863-1.412 18.852-6.399 4.986-4.987 7.318-11.858 6.397-18.851l-2.688-20.42 20.421-2.688c6.992-.921 13.024-4.952 16.551-11.06s4.001-13.348 1.302-19.865l-7.882-19.028 19.029-7.882c6.516-2.699 11.3-8.154 13.126-14.966 1.825-6.813.41-13.93-3.884-19.525l-12.539-16.341 16.341-12.538C508.791 269.561 512 263.053 512 256zm-17.936 5.954l-22.291 17.104a7.502 7.502 0 00-1.385 10.516l17.104 22.291a7.45 7.45 0 011.295 6.511 7.448 7.448 0 01-4.377 4.991l-25.958 10.752a7.5 7.5 0 00-4.059 9.799l10.752 25.958c.899 2.173.741 4.588-.435 6.625s-3.188 3.381-5.519 3.688l-27.857 3.667a7.5 7.5 0 00-6.456 8.415l3.667 27.856c.307 2.332-.471 4.623-2.134 6.286s-3.949 2.443-6.287 2.134l-27.856-3.667a7.502 7.502 0 00-8.414 6.457l-3.667 27.856a7.453 7.453 0 01-3.688 5.52 7.454 7.454 0 01-6.624.434l-25.958-10.752a7.5 7.5 0 00-9.799 4.059l-10.752 25.958a7.453 7.453 0 01-4.991 4.377 7.45 7.45 0 01-6.512-1.295l-22.29-17.104a7.502 7.502 0 00-10.516 1.384l-17.104 22.291c-1.431 1.865-3.6 2.935-5.953 2.935s-4.522-1.07-5.954-2.936l-17.104-22.291a7.502 7.502 0 00-10.516-1.384l-22.291 17.104a7.447 7.447 0 01-6.511 1.295 7.448 7.448 0 01-4.991-4.377l-10.752-25.958a7.5 7.5 0 00-9.799-4.059l-25.958 10.752a7.453 7.453 0 01-6.624-.434 7.45 7.45 0 01-3.688-5.52l-3.667-27.856a7.502 7.502 0 00-8.415-6.457l-27.856 3.667a7.444 7.444 0 01-6.286-2.134 7.45 7.45 0 01-2.134-6.286l3.667-27.856a7.5 7.5 0 00-6.457-8.415l-27.856-3.667c-2.332-.307-4.344-1.651-5.52-3.688s-1.334-4.451-.434-6.624l10.752-25.958a7.5 7.5 0 00-4.059-9.799l-25.958-10.752a7.448 7.448 0 01-4.377-4.991 7.45 7.45 0 011.295-6.511l17.104-22.291a7.503 7.503 0 00-1.384-10.516l-22.291-17.104C16.07 260.522 15 258.352 15 256s1.07-4.522 2.937-5.954l22.291-17.104a7.502 7.502 0 001.384-10.516l-17.104-22.291a7.45 7.45 0 01-1.295-6.511 7.448 7.448 0 014.377-4.991l25.958-10.752a7.497 7.497 0 004.059-9.799l-10.752-25.958a7.453 7.453 0 01.434-6.625 7.45 7.45 0 015.52-3.688l27.856-3.667a7.5 7.5 0 006.457-8.415l-3.667-27.856c-.307-2.332.47-4.623 2.133-6.286s3.956-2.439 6.286-2.134l27.856 3.667a7.498 7.498 0 008.415-6.457l3.667-27.856a7.452 7.452 0 013.688-5.52 7.456 7.456 0 016.625-.434l25.958 10.752a7.5 7.5 0 009.799-4.059l10.752-25.958a7.448 7.448 0 014.991-4.377 7.45 7.45 0 016.511 1.295l22.29 17.104a7.502 7.502 0 0010.516-1.384l17.104-22.291C251.478 16.07 253.648 15 256 15s4.523 1.07 5.955 2.936l17.104 22.291a7.503 7.503 0 0010.516 1.385l22.291-17.104a7.45 7.45 0 016.511-1.295 7.455 7.455 0 014.992 4.377l10.752 25.958a7.5 7.5 0 009.799 4.059l25.958-10.752a7.45 7.45 0 016.624.434 7.45 7.45 0 013.688 5.52l3.667 27.856a7.5 7.5 0 008.414 6.457l27.857-3.667a7.446 7.446 0 016.286 2.134 7.454 7.454 0 012.134 6.286l-3.667 27.857a7.5 7.5 0 006.457 8.415l27.855 3.667c2.332.307 4.344 1.651 5.52 3.688s1.334 4.452.435 6.625l-10.752 25.958a7.499 7.499 0 004.059 9.799l25.958 10.752a7.448 7.448 0 014.377 4.991 7.45 7.45 0 01-1.295 6.511l-17.104 22.291a7.498 7.498 0 001.385 10.516l22.291 17.104C495.93 251.478 497 253.648 497 256s-1.07 4.522-2.936 5.954z"/><path d="M261.304 271.91a7.501 7.501 0 00-10.607 0l-88.035 88.035c-2.924 2.924-7.682 2.924-10.607 0-2.924-2.924-2.924-7.683 0-10.607l197.284-197.283a7.447 7.447 0 015.303-2.197c2.003 0 3.887.78 5.303 2.197 2.925 2.924 2.925 7.683 0 10.607l-88.035 88.035a7.5 7.5 0 0010.607 10.606l88.035-88.035c8.771-8.773 8.771-23.047-.001-31.82a22.35 22.35 0 00-15.909-6.59 22.354 22.354 0 00-15.91 6.59L141.449 338.731c-8.773 8.772-8.773 23.047 0 31.82 4.386 4.387 10.148 6.58 15.91 6.58s11.523-2.193 15.91-6.58l88.035-88.035a7.501 7.501 0 000-10.606zm68.942-9.164c-37.22 0-67.5 30.28-67.5 67.5s30.28 67.5 67.5 67.5 67.5-30.28 67.5-67.5-30.28-67.5-67.5-67.5zm0 120c-28.948 0-52.5-23.551-52.5-52.5s23.552-52.5 52.5-52.5 52.5 23.551 52.5 52.5-23.552 52.5-52.5 52.5z"/><path d="M330.246 292.746c-20.678 0-37.5 16.822-37.5 37.5s16.822 37.5 37.5 37.5 37.5-16.822 37.5-37.5-16.822-37.5-37.5-37.5zm0 60c-12.406 0-22.5-10.093-22.5-22.5s10.094-22.5 22.5-22.5 22.5 10.093 22.5 22.5-10.094 22.5-22.5 22.5zm-80.992-170.992c0-37.22-30.28-67.5-67.5-67.5s-67.5 30.28-67.5 67.5 30.28 67.5 67.5 67.5 67.5-30.28 67.5-67.5zm-120 0c0-28.949 23.551-52.5 52.5-52.5s52.5 23.551 52.5 52.5-23.551 52.5-52.5 52.5-52.5-23.551-52.5-52.5z"/><path d="M219.254 181.754c0-20.678-16.822-37.5-37.5-37.5s-37.5 16.822-37.5 37.5 16.822 37.5 37.5 37.5 37.5-16.822 37.5-37.5zm-60 0c0-12.407 10.093-22.5 22.5-22.5s22.5 10.093 22.5 22.5-10.093 22.5-22.5 22.5-22.5-10.093-22.5-22.5z"/></svg>