<svg version="1.1" id="Capa_1" xmlns="http://www.w3.org/2000/svg" x="0" y="0" viewBox="0 0 480 480" xml:space="preserve"><path d="M300 48H140a8 8 0 00-8 8v64a8 8 0 008 8h160a8 8 0 008-8V56a8 8 0 00-8-8zm-128 64h-24V64h24v48zm40 0h-24V64h24v48zm40 0h-24V64h24v48zm40 0h-24V64h24v48z"/><path d="M457.656 106.344l-48-48-11.312 11.312L444 115.312v15.744l-43.576 21.784A8.001 8.001 0 00396 160v48a8 8 0 008 8h24v136c0 8.837-7.163 16-16 16s-16-7.163-16-16v-9.536c-.018-21.236-17.228-38.446-38.464-38.464H356V56.256C355.969 25.199 330.801.031 299.744 0H140.256C109.199.031 84.031 25.199 84 56.256V304H60c-22.091 0-40 17.909-40 40s17.909 40 40 40h24v16H60a8 8 0 00-8 8v64a8 8 0 008 8h320a8 8 0 008-8v-64a8 8 0 00-8-8h-24v-80h1.536c12.399.018 22.446 10.065 22.464 22.464V352c0 17.673 14.327 32 32 32 17.673 0 32-14.327 32-32V216h8a8 8 0 008-8v-96a8 8 0 00-2.344-5.656zM100 56.256c.031-22.22 18.036-40.225 40.256-40.256h159.488c22.22.031 40.225 18.036 40.256 40.256V400H100V56.256zM60 368c-13.255 0-24-10.745-24-24s10.745-24 24-24h24v48H60zm312 48v48H68v-48h304zm72-216h-32v-35.056l32-16V200z"/><path d="M260 144h16v16h-16zm32 0h16v16h-16zm-160 0h32v16h-32zm88 72c-39.764 0-72 32.235-72 72 0 39.764 32.236 72 72 72 39.765 0 72-32.236 72-72-.044-39.746-32.254-71.956-72-72zm0 128c-30.928 0-56-25.072-56-56s25.072-56 56-56 56 25.072 56 56c-.04 30.911-25.089 55.96-56 56z"/><path d="M242.631 273.383l-.007-.007-16.968-16.968a8 8 0 00-11.312 0l-16.968 16.968c-12.499 12.495-12.502 32.756-.007 45.255s32.756 12.502 45.255.007c12.499-12.495 12.502-32.757.007-45.255zm-11.319 33.929c-6.329 6.046-16.295 6.046-22.624 0-6.246-6.248-6.246-16.376 0-22.624L220 273.376l11.312 11.312c6.246 6.248 6.246 16.376 0 22.624z"/></svg>