<svg id="Layer_1" height="512" viewBox="0 0 511.982 511.982" width="512" xmlns="http://www.w3.org/2000/svg"><path d="M493.606 82.526L440.05 53.987c-6.543-3.485-11.585-5.919-19.482-8.793-7.906-2.877-13.331-4.253-20.577-5.786l-59.369-12.564c-16.638-3.521-31.895 4.011-37.102 18.316l-10.26 28.192c-1.889 5.189.787 10.928 5.977 12.816l5.593 2.036-4.929 19.352c-12.997-7.295-27.974-11.463-43.909-11.463s-30.913 4.168-43.91 11.464l-4.929-19.352 5.592-2.035a9.999 9.999 0 005.977-12.816L208.461 45.16c-5.207-14.306-20.464-21.839-37.102-18.316l-59.368 12.564c-7.247 1.533-12.672 2.91-20.577 5.786-7.897 2.875-12.939 5.309-19.482 8.794L18.377 82.526C3.367 90.523-3.478 106.1 1.729 120.404l10.261 28.191a10.003 10.003 0 009.398 6.583 9.998 9.998 0 003.419-.605l5.592-2.035 8.744 18.16c-4.55 2.211-6.784 7.55-5.015 12.408a10.003 10.003 0 009.398 6.583 9.998 9.998 0 003.419-.605l.893-.325 8.744 18.159c-4.55 2.211-6.783 7.55-5.015 12.408a10.003 10.003 0 009.398 6.583 9.975 9.975 0 003.419-.606l.893-.325 8.743 18.159c-4.55 2.212-6.783 7.55-5.014 12.408a10.003 10.003 0 009.398 6.583c1.135 0 2.29-.195 3.419-.605l.893-.325 8.743 18.159c-4.55 2.212-6.783 7.551-5.014 12.409a10.003 10.003 0 009.398 6.583 9.998 9.998 0 003.419-.605l.893-.325 14.469 30.049a22.224 22.224 0 00-2.863 10.853v18.756l-24.198 15.85a22.294 22.294 0 00-10.124 18.695v30.889c0 12.325 10.028 22.353 22.354 22.353h43.789l17.26 29.896c3.982 6.927 11.387 11.234 19.334 11.241h109.502c30.756 0 57.72-16.515 72.512-41.138h49.996c12.326 0 22.354-10.027 22.354-22.353v-30.9a22.287 22.287 0 00-10.118-18.682l-24.204-15.854v-18.767a22.217 22.217 0 00-2.862-10.844l14.468-30.047.893.325c1.129.41 2.284.605 3.419.605 4.084 0 7.92-2.522 9.398-6.583 1.768-4.858-.464-10.196-5.014-12.408l8.743-18.159.893.325c1.129.41 2.284.605 3.419.605 4.084 0 7.92-2.522 9.398-6.583 1.768-4.858-.464-10.196-5.014-12.408l8.743-18.159.893.325a9.98 9.98 0 003.419.606c4.084 0 7.92-2.522 9.398-6.583 1.769-4.858-.465-10.197-5.015-12.408l8.744-18.16.893.325c1.129.41 2.284.605 3.419.605 4.084 0 7.92-2.522 9.398-6.583 1.769-4.858-.465-10.197-5.015-12.408l8.744-18.16 5.592 2.035a9.985 9.985 0 007.646-.334 10 10 0 005.171-5.644l10.261-28.191c5.211-14.302-1.636-29.878-16.644-37.875zM325.991 186.092c0 38.598-31.402 70-70 70s-70-31.402-70-70 31.402-70 70-70 70 31.402 70 70zM82.453 122.95c-1.889-5.19-7.629-7.864-12.817-5.978l-42.273 15.386-6.84-18.794c-2.005-5.509 2.201-10.693 7.259-13.389L81.336 71.64c5.994-3.193 10.054-5.152 16.918-7.65 6.872-2.501 11.24-3.609 17.878-5.015L175.5 46.411c5.605-1.185 12.161.082 14.167 5.59l6.841 18.795-42.279 15.388c-5.189 1.89-7.866 7.628-5.977 12.817 1.889 5.19 7.625 7.867 12.817 5.977l27.196-9.899 4.961 19.478-135.22 49.216-8.72-18.11 27.19-9.896c5.19-1.889 7.865-7.627 5.977-12.817zm95.426 18.476a89.413 89.413 0 00-9.674 24.805l-92.759 33.762-8.72-18.11zm-11.859 46.883a89.771 89.771 0 002.813 20.259l-75.949 27.643-8.719-18.109zm9.952 38.946a90.317 90.317 0 0011.485 17.102l-77.133 28.074-8.719-18.109zm28.127 32.33a90.176 90.176 0 0011.69 7.012 22.182 22.182 0 00-7.795 3.318l-77.372 44.671-11.577-24.043zm85.581 206.413c-35.585 0-64.536-28.951-64.536-64.536s28.951-64.536 64.536-64.536 64.536 28.951 64.536 64.536-28.951 64.536-64.536 64.536zm-84.536-64.536c0 .582.032 1.157.044 1.736a28.93 28.93 0 01-6.395.728c-15.908 0-28.85-12.942-28.85-28.85s12.942-28.851 28.85-28.851a28.723 28.723 0 0120.472 8.528c-8.913 13.393-14.121 29.452-14.121 46.709zm208.327-11.8c.993.649 1.071 1.67 1.071 1.957v30.889a2.356 2.356 0 01-2.354 2.353h-41.292a84.247 84.247 0 003.32-23.398c0-46.613-37.923-84.536-84.536-84.536-22.151 0-42.328 8.575-57.417 22.566-8.947-8.441-20.827-13.266-33.47-13.266-26.936 0-48.85 21.914-48.85 48.851 0 26.936 21.914 48.85 48.85 48.85 3.061 0 6.131-.313 9.151-.891 4.492 17.005 14.166 31.919 27.219 42.963h-54.977c-.808-.001-1.576-.464-2.013-1.225l-20.156-34.913a10.002 10.002 0 00-8.661-5H99.794a2.356 2.356 0 01-2.354-2.353V391.63a2.37 2.37 0 011.077-1.971l28.724-18.814a10 10 0 004.521-8.365v-24.149c0-.635.318-1.494 1.225-2.016l85.357-49.281a9.59 9.59 0 00.795-.511c.4-.284.856-.429 1.357-.429h70.988c.5 0 .957.145 1.357.429.257.183.522.354.795.511l85.375 49.292c.889.511 1.207 1.37 1.208 1.994v24.16a10 10 0 004.521 8.365zm-32.11-75.076l-77.372-44.672a22.178 22.178 0 00-7.794-3.318 90.158 90.158 0 0011.689-7.011l85.054 30.957zm20.298-42.155l-77.133-28.074a90.317 90.317 0 0011.485-17.102l74.367 27.067zm17.439-36.22l-75.948-27.643a89.722 89.722 0 002.813-20.259l81.855 29.793zm17.439-36.218l-92.759-33.762a89.401 89.401 0 00-9.674-24.805l111.153 40.457zm17.44-36.219l-135.221-49.218 4.961-19.478 138.98 50.585zm37.483-50.209l-6.84 18.794-169.145-61.564L322.315 52c2.005-5.508 8.561-6.774 14.167-5.59l59.369 12.564c6.637 1.404 11.005 2.513 17.878 5.015 6.864 2.498 10.924 4.457 16.917 7.649l53.555 28.537c5.058 2.696 9.264 7.881 7.259 13.39z"/><path d="M255.992 226.092c22.056 0 40-17.944 40-40s-17.944-40-40-40-40 17.944-40 40 17.944 40 40 40zm0-60c11.028 0 20 8.972 20 20s-8.972 20-20 20-20-8.972-20-20 8.971-20 20-20zm47.787 225.37h-28.2c-5.523 0-10 4.478-10 10s4.477 10 10 10h28.2c5.523 0 10-4.478 10-10s-4.477-10-10-10zM115.356 120.974c5.523 0 10-4.478 10-10s-4.477-10-10-10h-.007c-5.523 0-9.996 4.478-9.996 10s4.48 10 10.003 10z"/></svg>