<svg version="1.1" id="Capa_1" xmlns="http://www.w3.org/2000/svg" x="0" y="0" viewBox="0 0 455.731 455.731" xml:space="preserve"><path d="M296.076 105.381c-45.26-8.61-91.16-8.61-136.43 0-19.8 4.41-44.71 28.28-49.58 47.48-8.1 37.15-8.1 74.81 0 111.96 4.87 19.2 29.78 43.07 49.58 47.48l.015.003a1.876 1.876 0 011.525 1.836v54.422c0 2.72 3.32 4.06 5.21 2.09l25.85-26.53 24.303-24.948a1.853 1.853 0 011.38-.559c26.099.723 52.226-1.385 78.147-6.313 19.8-4.41 44.72-28.28 49.58-47.48 8.11-37.15 8.11-74.81 0-111.96-4.861-19.201-29.77-43.071-49.58-47.481zm.69 162.211c-3.96 8.408-9.722 15.403-18.034 19.868-2.345 1.26-5.148 1.667-7.795 2.482-3.044-.924-5.945-1.545-8.639-2.663-27.916-11.582-53.608-26.524-73.959-49.429-11.573-13.025-20.632-27.73-28.288-43.292-3.631-7.38-6.691-15.049-9.81-22.668-2.845-6.948 1.345-14.126 5.756-19.361 4.139-4.913 9.465-8.673 15.233-11.444 4.502-2.163 8.943-.916 12.231 2.9 7.108 8.25 13.637 16.922 18.924 26.485 3.251 5.882 2.359 13.072-3.533 17.075-1.432.973-2.737 2.115-4.071 3.214-1.17.963-2.271 1.936-3.073 3.24-1.466 2.385-1.536 5.2-.592 7.794 7.266 19.968 19.513 35.495 39.611 43.858 3.217 1.338 6.446 2.896 10.151 2.464 6.205-.725 8.214-7.531 12.562-11.087 4.25-3.475 9.681-3.521 14.259-.624 4.579 2.898 9.018 6.009 13.43 9.153 4.331 3.086 8.643 6.105 12.638 9.623 3.839 3.382 5.162 7.82 2.999 12.412zm-36.044-65.069c-1.733.031-1.052-.003-.393-.022-2.793-.098-4.312-1.742-4.612-4.415-.219-1.953-.392-3.932-.858-5.832-.918-3.742-2.907-7.21-6.054-9.503-1.486-1.083-3.17-1.873-4.934-2.381-2.241-.647-4.568-.469-6.804-1.017-2.428-.594-3.771-2.561-3.39-4.839.347-2.073 2.364-3.691 4.629-3.527 14.157 1.022 24.275 8.341 25.719 25.008.102 1.176.222 2.418-.039 3.543-.424 1.829-1.731 2.781-3.052 2.954.108.002.087.011-.212.031zm-8.803-38.119c-4.344-2.127-9.042-3.449-13.804-4.237-2.081-.344-4.184-.553-6.275-.844-2.534-.352-3.886-1.967-3.767-4.464.112-2.34 1.822-4.023 4.372-3.879 8.38.476 16.474 2.287 23.924 6.232 15.15 8.023 23.804 20.687 26.33 37.597.115.766.298 1.525.356 2.294.144 1.898.233 3.799.379 6.302-.06.456-.092 1.528-.358 2.538-.969 3.666-6.527 4.125-7.807.425-.379-1.098-.436-2.347-.438-3.529-.013-7.734-1.694-15.46-5.594-22.189-4.009-6.914-10.135-12.728-17.318-16.246zm46.812 52.261c-2.927.035-4.244-2.414-4.434-5.039-.376-5.196-.636-10.415-1.353-15.568-3.78-27.201-25.47-49.705-52.544-54.534-4.074-.727-8.245-.918-12.371-1.351-2.609-.274-6.026-.432-6.604-3.675-.485-2.719 1.81-4.884 4.399-5.023.704-.038 1.412-.006 2.119-.003 35.065.983 2.14.076.094.005 36.472 1.063 66.417 25.283 72.839 61.351 1.095 6.151 1.485 12.44 1.972 18.683.204 2.625-1.283 5.12-4.117 5.154z"/><path d="M0 0v455.731h455.731V0H0zm371.996 270.781l-.09.36c-7.28 29.43-40.1 61.01-70.24 67.58l-.34.07c-24.37 4.65-48.92 6.97-73.46 6.97-7.223 0-14.446-.225-21.665-.629l-33.285 34.599c-8.24 8.58-22.73 2.74-22.73-9.15v-32.852c-29.015-8.286-59.391-38.414-66.37-66.589l-.08-.36c-9-41.1-9-82.78 0-123.88l.08-.36c7.29-29.43 40.11-61.01 70.24-67.58l.35-.07c48.74-9.3 98.17-9.3 146.92 0l.34.07c30.14 6.57 62.96 38.15 70.24 67.58l.09.36c9 41.101 9 82.781 0 123.881z"/></svg>