<svg id="Line-Expand" height="512" viewBox="0 0 64 64" width="512" xmlns="http://www.w3.org/2000/svg"><path d="M61.707 10.293l-8-8A.997.997 0 0053 2H3a1 1 0 00-1 1v58a1 1 0 001 1h58a1 1 0 001-1V11a.997.997 0 00-.293-.707zM4 60V4h48.586l6 6H54V7h-2v4a1 1 0 001 1h7v48z"/><path d="M53.104 45.378A23.754 23.754 0 0040.158 34.4l-2.656-5.312a1.004 1.004 0 00-.536-.486l-9.192-3.536a.998.998 0 00-1.066.226l-1.414 1.414a1 1 0 00-.226 1.066l3.536 9.192a1 1 0 00.486.536l5.291 2.646a23.824 23.824 0 0010.573 12.975l8.016 4.676a3.281 3.281 0 003.975-.514 3.299 3.299 0 00.556-3.902zM27.741 29.155l3.916 3.916 1.414-1.414-3.916-3.916 6.73 2.589 2.333 4.666-3.223 3.223-4.666-2.333zm27.788 26.713a1.285 1.285 0 01-1.554.201l-8.016-4.676a21.815 21.815 0 01-9.613-11.698l3.337-3.337c4.976 1.812 9.11 5.326 11.668 9.982l4.396 8.002a1.292 1.292 0 01-.218 1.526zM14 14.414l4.293 4.293a.999.999 0 001.414 0L24 14.414l4.293 4.293a.999.999 0 001.414 0L34 14.414l4.293 4.293a.997.997 0 001.414 0L44 14.414l4.293 4.293 1.414-1.414-5-5a.999.999 0 00-1.414 0L39 16.586l-4.293-4.293a.999.999 0 00-1.414 0L29 16.586l-4.293-4.293a.999.999 0 00-1.414 0L19 16.586l-4.293-4.293a.999.999 0 00-1.414 0l-5 5 1.414 1.414zm5 13.172l-4.293-4.293a.999.999 0 00-1.414 0l-5 5 1.414 1.414L14 25.414l4.293 4.293a.997.997 0 001.414 0l5-5-1.414-1.414zM14 56h2v2h-2zm-4 0h2v2h-2zm-4 0h2v2H6z"/></svg>