<svg id="Capa_1" enable-background="new 0 0 512 512" height="512" viewBox="0 0 512 512" width="512" xmlns="http://www.w3.org/2000/svg"><g><g><g><path d="m341.89 242.89c-2.396-3.563-6.927-5.241-11.063-4.055-4.023 1.155-6.945 4.776-7.234 8.953-.284 4.103 2.123 8.071 5.858 9.762 3.858 1.746 8.516.818 11.418-2.267 3.142-3.338 3.562-8.585 1.021-12.393z"/><path d="m299.125 64.517c0-5.523-4.477-10-10-10h-163.678c-5.523 0-10 4.477-10 10v94.38c0 5.523 4.477 10 10 10h163.678c5.523 0 10-4.477 10-10zm-20 84.38h-143.678v-74.38h143.678z"/><path d="m461.399 134.092c0-.022-.001-.044-.002-.066-.002-.058-.004-.116-.007-.173-.002-.041-.004-.083-.007-.124-.002-.039-.005-.079-.008-.118-.003-.045-.007-.091-.01-.136-.001-.013-.002-.025-.003-.038-.141-1.617-.667-3.123-1.485-4.427l-36.74-60.359c-2.872-4.718-9.024-6.212-13.741-3.343-4.718 2.872-6.214 9.024-3.343 13.741l27.555 45.269h-3.466c-21.817 0-39.567 17.75-39.567 39.568s17.75 39.568 39.567 39.568h11.26v229.843c0 10.313-8.39 18.702-18.702 18.702s-18.702-8.39-18.702-18.702v-81.16c0-27.752-22.578-50.33-50.33-50.33h-10.095v-7.976c0-5.523-4.477-10-10-10s-10 4.477-10 10v153.079h-232.574v-414.018c0-7.109 5.783-12.892 12.892-12.892h206.79c7.109 0 12.892 5.783 12.892 12.892v170.528c0 5.523 4.477 10 10 10s10-4.477 10-10v-170.528c0-18.137-14.755-32.892-32.892-32.892h-206.79c-18.137 0-32.892 14.755-32.892 32.892v414.018h-10.401c-5.523 0-10 4.477-10 10v45.09c0 5.523 4.477 10 10 10h293.376c5.523 0 10-4.477 10-10v-45.09c0-5.523-4.477-10-10-10h-10.401v-125.101h10.095c16.724 0 30.33 13.606 30.33 30.33v81.16c0 21.34 17.362 38.702 38.703 38.702 21.34 0 38.702-17.362 38.702-38.702v-298.98c-.001-.075-.002-.151-.004-.227zm-117.425 357.908h-273.376v-25.09h273.376zm86.168-308.545c-10.79 0-19.567-8.778-19.567-19.568s8.778-19.568 19.567-19.568h11.26v39.136z"/><path d="m185.087 202.958c0-5.523-4.477-10-10-10h-49.64c-5.523 0-10 4.477-10 10s4.477 10 10 10h49.64c5.523 0 10-4.477 10-10z"/><path d="m299.125 202.958c0-5.523-4.477-10-10-10h-49.64c-5.523 0-10 4.477-10 10s4.477 10 10 10h49.64c5.523 0 10-4.477 10-10z"/><path d="m207.286 400.558c32.529 0 58.993-26.334 58.993-58.703 0-36.565-47.025-78.998-52.387-83.715-3.737-3.288-9.324-3.328-13.108-.09-.526.451-13.043 11.213-25.691 26.462-17.783 21.439-26.8 40.732-26.8 57.343 0 32.369 26.464 58.703 58.993 58.703zm-.073-121.302c14.897 14.599 39.066 42.51 39.066 62.599 0 21.341-17.492 38.703-38.993 38.703s-38.993-17.362-38.993-38.703c0-20.774 24.053-48.293 38.92-62.599z"/></g></g></g></svg>